<?xml version="1.0" encoding="utf-8"?>
<!-- Generator: Adobe Illustrator 23.0.2, SVG Export Plug-In . SVG Version: 6.00 Build 0)  -->
<svg version="1.1" id="Слой_1" xmlns="http://www.w3.org/2000/svg" xmlns:xlink="http://www.w3.org/1999/xlink" x="0px" y="0px"
	 viewBox="0 0 432 145.8" style="enable-background:new 0 0 432 145.8;" xml:space="preserve">
<g>
	<g>
		<path d="M246.46,50c2.41,0,3.38,2.08,2.15,4.66c-1.22,2.57-4.17,4.66-6.58,4.66c-2.41,0-3.38-2.08-2.15-4.66
			C241.1,52.08,244.04,50,246.46,50L246.46,50z M150.94,90.63c14.61-15.75,24.47-23.62,29.53-23.62c1.2,0,2.19,0.53,3.05,1.54
			c0.82,1.06,1.21,2.48,1.15,4.22c-0.17,5.28-2.9,11.48-8.19,18.63l0.35,0.49c14.66-16.43,24.39-24.59,30.28-24.59
			c5.03-0.01,6.22,3.13,5.74,6.24c-0.32,2.07-1.48,4.37-3.18,5.86c8.2-1.89,15.39-6.79,20.52-12.14h8.65l-29.55,37.01
			c-2.14,2.68-3.93,9.01,0.72,9.01c1.93,0,4.67-1.27,8.26-3.81c7.58-5.38,22.19-23.31,34.4-34.05c5.43-4.78,10.52-8.4,14.08-8.4
			c1.2,0,2.19,0.53,3.05,1.54c0.82,1.06,1.21,2.48,1.15,4.22c-0.17,5.28-2.9,11.48-8.2,18.63l0.35,0.49
			c14.66-16.43,24.69-24.63,30.09-24.63c4.08,0,6.03,2.27,5.88,6.86c-0.1,3.08-1.04,6.29-2.77,9.58c-1.77,3.29-4.91,7.39-9.43,12.34
			c-4.52,4.95-7.36,8.2-8.45,9.74c-1.1,1.58-1.66,2.92-1.7,4.02c-0.03,0.89,0.22,1.66,0.78,2.27c0.53,0.65,1.16,0.97,1.9,0.97
			c1.84,0,4.77-1.3,8.75-3.86c3.98-2.56,8.47-6.57,13.53-12.01l5.04-5.45c2.55-4.42,6.4-8.66,11.55-12.73
			c9.86-7.83,18.09-11.73,24.66-11.73c3.41,0,5.06,1.91,4.93,5.76c-0.03,0.89-0.1,2.03-0.2,3.37l6.93-9.13h7.92l-26.37,34.78
			c-2.63,3.33-3.97,6.01-4.04,8.04c-0.04,1.3,0.26,2.27,0.95,2.96c0.65,0.65,1.35,0.97,2.09,0.97c1.44,0,3.82-1.38,7.1-4.14
			c3.28-2.76,9.63-9.17,19.05-19.23l0.52,0.85c-9.99,10.71-16.62,17.33-19.87,19.88c-3.21,2.56-5.65,3.86-7.28,3.86
			c-1.41,0-2.52-0.69-3.28-2.07c-0.78-1.38-1.13-3.04-1.06-4.95c0.11-3.33,1.47-7.47,4.09-12.46l-0.33-0.37
			c-12.59,13.23-21.09,19.84-25.51,19.84c-1.84,0-3.28-1.01-4.26-3.04c-0.98-2.03-1.41-4.67-1.3-7.91c0.11-3.22,0.82-6.37,2.15-9.44
			c-11.81,12.95-20.51,19.42-26.14,19.42c-1.32,0-2.43-0.69-3.34-2.11c-0.91-1.38-1.34-3.12-1.27-5.23c0.07-1.99,0.5-4.02,1.34-6.09
			c0.8-2.07,1.72-3.86,2.69-5.28c0.97-1.42,3.3-4.14,6.99-8.16l4.3-4.67c4.87-5.28,7.32-8.93,7.39-11c0.07-2.15-1.09-3.25-3.48-3.25
			c-4.45,0-10.79,4.18-18.98,12.5c-8.22,8.36-17.79,19.19-28.76,32.55h-8.9l25.94-32.83c4.1-5.19,6.18-8.56,6.23-10.19
			c0.05-1.5-0.75-2.27-2.44-2.27c-3.5,0-8.17,3.14-13.6,7.98c-14.88,13.28-33.59,38.36-43.11,38.28c-1.5-0.01-2.82-0.56-3.59-1.91
			c-3.01-5.24-0.45-10.87,1.37-14.65c1.63-3.37,10.32-14.6,20.62-27.26l-0.34-0.07c-6.64,6.33-15.64,9.68-21.49,10.35
			c-0.36,0.07-0.73,0.1-1.11,0.09c-2.12-0.06-3.62-1.58-1.61-4.64c1.56-2.39,4.88-5.09,7.51-4.68c0.07-2.15-1.78-3.52-4.17-3.43
			c-4.34,0.15-10.64,4.37-18.83,12.69c-8.23,8.36-17.79,19.19-28.75,32.55h-8.9l25.94-32.83c4.1-5.19,6.18-8.56,6.23-10.19
			c0.05-1.5-0.75-2.27-2.44-2.27c-4.7,0-14.26,7.62-28.64,22.85l0.01,0.02c-9.99,10.71-17.11,17.7-20.35,20.26
			c-3.22,2.55-5.65,3.86-7.28,3.86c-1.41,0-2.52-0.69-3.28-2.07c-0.78-1.38-1.13-3.04-1.06-4.95c0.11-3.33,1.47-7.47,4.09-12.46
			l-0.33-0.37c-12.59,13.23-21.09,19.84-25.51,19.84c-1.84,0-3.28-1.01-4.26-3.04c-0.98-2.03-1.41-4.67-1.3-7.91
			c0.3-9.05,5.4-17.49,15.26-25.28c9.86-7.83,18.09-11.73,24.66-11.73c3.41,0,5.06,1.91,4.93,5.76c-0.03,0.89-0.1,2.03-0.2,3.37
			l6.93-9.13h7.92l-26.37,34.78c-2.63,3.33-3.97,6.01-4.04,8.04c-0.04,1.3,0.26,2.27,0.95,2.96c0.65,0.65,1.35,0.97,2.09,0.97
			c1.44,0,3.82-1.38,7.1-4.14c3.24-2.72,9.94-9.37,19.17-19.22L150.94,90.63L150.94,90.63z M136.32,72.74
			c0.09-2.84-1.24-4.26-4-4.26c-4.97,0-12.46,5.72-22.48,17.12c-10.01,11.44-15.1,19.48-15.25,24.15c-0.03,1.01,0.27,1.99,0.89,2.88
			c0.64,0.93,1.55,1.38,2.75,1.38c1.75,0,4.65-1.46,8.74-4.38c4.09-2.92,9.15-7.67,15.2-14.24c6.05-6.53,9.89-11.32,11.55-14.28
			C135.38,78.13,136.24,75.33,136.32,72.74L136.32,72.74z M346.77,72.74c0.09-2.84-1.24-4.26-4-4.26c-4.97,0-12.46,5.72-22.48,17.12
			c-10.01,11.44-15.1,19.48-15.25,24.15c-0.03,1.01,0.27,1.99,0.89,2.88c0.64,0.93,1.55,1.38,2.75,1.38c1.75,0,4.65-1.46,8.74-4.38
			c4.09-2.92,9.15-7.67,15.2-14.24c6.05-6.53,9.89-11.32,11.55-14.28C345.83,78.13,346.68,75.33,346.77,72.74L346.77,72.74z"/>
	</g>
	<path d="M148.06,38.53c0,9.28-22.06,10.68-39.28,12.15c-52.43,4.47-79.58-0.82-79.07-40.36c0.37,0.03,0.41,0.04,0.77,0.08
		c1.97,29.73,54.55,38.17,76.4,38.46c18.84,0.25,40.2-2.09,40.2-10.14c0-3.36-3.89-4.68-8.18-4.68c-19.98,0-35.6,27.32-51.25,47.54
		c-15.65,20.22-35.92,48.97-69.37,48.97C6.15,130.54,0,128.26,0,124.21c0-6.18,13.36-8.99,24.27-8.99
		c43.3,0,86.34,26.48,121.51,26.48c11.67,0,25.85-6.86,25.85-17.8c0.23,0.19,0.4,0.3,0.66,0.53c0,15.74-27.12,21.36-44.18,21.36
		c-39.17,0-56.44-29.54-103.79-29.54c-13.85,0-23.31,3.36-23.31,7.98c0,4.68,10.46,5.32,17.19,5.32
		c34.06,0.13,48.61-33.24,60.41-49.31c8.65-11.77,36.12-47.21,60.14-47.21C144.28,33.04,148.06,35.19,148.06,38.53z"/>
</g>
<g>
	<path d="M386.49,11.87c0,3.61,2.27,8.08,6.41,8.21c-2.52-2.25-2.87-4.22-2.87-7.71c0-5.85,4.65-11.7,10.5-11.7
		c6.51,0,12.59,5.39,12.59,12.25c0,3.26-0.9,6.2-3.41,9.84c2.79-1.01,5.19-1.96,9.07-1.96c6.94,0,12.28,5.02,12.28,12.23
		c0,5.67-7.25,9.73-13.52,9.73c-8.64,0-18.35-6.06-24.36-6.06c-1.99,0-3.52,0.59-3.52,1.91c0,1.23,1.11,1.63,2.53,1.63
		c4.37,0,7.29-3.94,9.34-6.73c2.05-2.79,5.1-6.74,6.94-6.74c0.85,0,1.43,0.23,1.43,0.78c0,0.72-1.09,1.05-2.52,1.05
		c-5.66,0-18.48-9.49-26.93-9.49c-6.63,0-12.93,5.25-12.93,13.66c0,7.9,5.58,13.62,12.85,13.62c4.73,0,7.73-1.94,9.36-2.93
		c-2.17,2.33-2.5,6.18-2.5,8.7c0,7.43,5.43,12.89,12.95,12.89c7.91,0,13.32-5.84,13.32-12.04c0-3.13-3.02-6.33-5.97-5.79
		c1.55,1.67,2.22,4.43,2.22,6.72c0,4.08-3.73,10.35-9.58,10.35c-6.55,0-12.02-4.87-12.02-12.13c0-6.05,2.06-8.45,2.95-9.96
		c-2.7,1.13-6.59,3.55-10.9,3.55c-6.33,0-11.9-5.5-11.9-12.92c0-6.1,4.83-10.15,12.27-10.15c10.7,0,18.99,6.69,26.39,6.69
		c2.42,0,3.58-0.62,3.58-1.82c0-0.76-0.82-1.3-2.01-1.3c-3.13,0-6.42,3.55-8.66,6.17c-1.93,2.26-4.67,7.21-7.43,7.21
		c-1.55,0-2.38-0.27-2.38-1.06c0-0.79,1.86-1.23,3.2-1.23c5.64,0,16,9.22,25.76,9.22c6.82,0,12.98-6.25,12.98-13.23
		c0-8.14-5.35-13.28-13.29-13.28c-3.41,0-6.67,1.29-7.56,1.58c1.95-2.66,2.6-5.66,2.6-8.68c0-7.44-6.16-12.9-13.6-12.9
		C393.36,0,386.49,4.46,386.49,11.87z"/>
</g>
</svg>
