<?xml version="1.0" encoding="utf-8"?>
<!-- Generator: Adobe Illustrator 22.0.0, SVG Export Plug-In . SVG Version: 6.00 Build 0)  -->
<svg version="1.1" id="Layer_1" xmlns="http://www.w3.org/2000/svg" xmlns:xlink="http://www.w3.org/1999/xlink" x="0px" y="0px"
	 viewBox="0 0 858 305.2" style="enable-background:new 0 0 858 305.2;" xml:space="preserve">
<style type="text/css">
	.st0{fill:#FF4338;}
</style>
<g>
	<g>
		<path class="st0" d="M313.3,89.1c-59.6,0-108,48.5-108,108.1c0,59.6,48.5,108,108,108c59.6,0,108.1-48.5,108.1-108
			C421.3,137.6,372.9,89.1,313.3,89.1z M368.1,197.2c0,31.1-24.6,56.3-54.8,56.3c-30.3,0-54.9-25.3-54.9-56.3
			c0-31.1,24.6-56.3,54.9-56.3C343.6,140.8,368.1,166.1,368.1,197.2z"/>
		<rect x="455.8" class="st0" width="58.8" height="300"/>
		<rect x="550.7" class="st0" width="58.8" height="300"/>
		<path class="st0" d="M847.4,151.2c-16.7-38.8-52.9-62-96.9-62c-59.6,0-108.1,48.5-108.1,108.1c0,59.6,48.5,108,108.1,108
			c22.7,0,41.7-6.5,58.1-19.9L809,300H858v-75.1C858,200.7,856.8,173,847.4,151.2z M805.3,197.2c0,31.1-24.6,56.3-54.8,56.3
			c-30.3,0-54.9-25.3-54.9-56.3c0-31.1,24.6-56.3,54.9-56.3C780.7,140.9,805.3,166.1,805.3,197.2z"/>
		<polygon class="st0" points="198.9,96.8 198.2,94.5 9.6,94.5 9.6,140.8 108.3,140.8 0,298.4 0.3,300 191.4,300 191.4,251.5 
			92.7,251.5 		"/>
	</g>
</g>
</svg>
