<svg xmlns="http://www.w3.org/2000/svg" width="247" height="35" viewBox="0 0 247 35">
    <path fill="#F39325" fill-rule="evenodd" d="M17.502 0C27.151 0 35 7.851 35 17.501 35 27.151 27.15 35 17.502 35 7.852 35 0 27.15 0 17.501 0 7.851 7.852 0 17.502 0zm8.535 17.501v-.005c0-7.585-3.43-12.68-8.535-12.68-5.108 0-8.54 5.095-8.54 12.685 0 7.588 3.432 12.685 8.543 12.685 5.103 0 8.532-5.097 8.532-12.685zM183.72.284c.161.157.24.354.28.505v3.42a1.046 1.046 0 0 1-1.052 1.019l-9.307-.02v24.564c0 .098.003.197.006.293L173.65 34c-.004.053-.044.44-.319.708-.294.288-.72.293-.72.293h-7.218c-.578-.012-1.037-.462-1.043-1.021V30.57c.013-.265.018-.531.018-.799V5.52l-.018-.311h-.32l-9.047.018a1.113 1.113 0 0 1-.669-.29c-.227-.22-.294-.528-.313-.66V1.027a1.058 1.058 0 0 1 1.063-1.024L183.092 0c.14.018.416.077.628.284zm28.96 34.423c-.294.288-.72.293-.72.293H190.04c-.576-.012-1.032-.46-1.041-1.014V.98c.01-.095.062-.439.316-.686.295-.288.721-.293.721-.293H211.96s.426.005.72.293c.278.27.316.664.32.71v3.204c-.006.552-.46 1-1.032 1.016h-6.518c-.03.003-.058.011-.088.013h-7.03l.006 7.459h9.326c.108.012.45.066.698.308.289.28.3.677.3.695v3.13a1.047 1.047 0 0 1-1.059 1.01h-8.952l-.319.003v11.935h13.636c.572.017 1.026.464 1.032 1.016v3.204c-.003.042-.04.439-.32.71zM226.696.294c.205.206.274.486.299.63L227 33.99a1.03 1.03 0 0 1-1.003 1.01h-6.99s-.413-.005-.699-.293c-.26-.261-.303-.633-.308-.701V1.038c0-.566.46-1.032 1.02-1.038h6.977s.413.006.7.294zM69 34.359c0 .348-.29.629-.65.634h-2.987c-3.334.094-6.053-.712-8.554-4.98l-5.601-10.595a.598.598 0 0 1-.102-.311c0-.346.288-.625.645-.633 4.091-.209 9.108-2.283 8.972-7.506-.139-5.296-5.394-6.319-9.567-6.335v-.001h-1.788v.13l.01 29.226c-.014.555-.476.999-1.045 1.01h-7.308c-.071-.006-.455-.049-.726-.31a1.076 1.076 0 0 1-.299-.632V1.038C40 .472 40.479.006 41.064 0h13.647c7.042 0 12.324 4.536 12.383 10.67.072 7.366-5.825 9.6-5.825 9.6l7.63 13.778c.057.093.101.195.101.311zM112.602.912l3.392 33.09c.026.296-.036.527-.186.69-.173.19-.47.299-.83.306h-7.263s-.423-.005-.715-.293c-.216-.211-.286-.504-.308-.644l-2.211-21.88-7.768 22.364-.006.015a.648.648 0 0 1-.615.436V35l-4.564-.002c-.905-.016-1.238-.428-1.549-1.206L82.326 11.65l-2.844 21.972c-.121.862-.769 1.368-1.838 1.376h-2.997v-.002a.642.642 0 0 1-.647-.633l4.323-33.304c.096-.68.564-1.054 1.32-1.054L86.845 0c.097.007.424.046.673.29.095.094.163.204.21.31l7.59 21.876 7.44-21.339c.332-.816.758-1.132 1.586-1.132L111.63 0c.1.008.423.048.67.29.207.203.278.476.303.622zm40.746 34.086V35h-2.869c-3.37 0-6.228-2.106-7.293-5.042l-1.173-3.373a.336.336 0 0 0 .007-.012l-2.254-6.425h.012l-3.966-11.411-4.077 11.411h2.693c2.388 0 4.688 1.203 5.782 4.397a.626.626 0 0 1-.321.675.605.605 0 0 1-.265.065h-9.693l-3.083 8.585c-.267.81-.622 1.116-1.302 1.13h-3.894v-.002a.644.644 0 0 1-.652-.637c0-.09.025-.173.062-.249L133.044.91c.27-.7.553-.91 1.185-.91h7.237c.14.017.416.076.628.283.109.106.18.233.227.35l11.573 33.34c.018.04.027.078.041.12l.045.127c.013.045.02.092.02.141a.645.645 0 0 1-.652.637zm93.652-.64a.639.639 0 0 1-.634.635h-2.907c-3.25.094-5.902-.712-8.34-4.981l-6.02-11.683a1.013 1.013 0 0 1-.099-.42c0-.186.062-.349.129-.471l8.723-14.176c.001-.002.003 0 .004 0l1.381-2.244S239.815 0 240.774 0H244.975c.35.006.632.287.632.635a.61.61 0 0 1-.102.322l-8.766 14.285 10.16 18.792-.002.001c.06.096.103.203.103.324z"/>
</svg>
